STARTFONT 2.1
FONT -WRI-Mathematica5Mono-Bold-R-Normal--30-300-75-75-M-170-Adobe-FontSpecific
SIZE 30 75 75
FONTBOUNDINGBOX 92 63 -3 -25
STARTPROPERTIES 16
FOUNDRY "WRI"
FAMILY_NAME "Mathematica5Mono"
WEIGHT_NAME "Bold"
SLANT "R"
SETWIDTH_NAME "Normal"
PIXEL_SIZE 30
POINT_SIZE 300
RESOLUTION_X 75
RESOLUTION_Y 75
SPACING "M"
AVERAGE_WIDTH 170
CHARSET_REGISTRY "Adobe"
CHARSET_ENCODING "FontSpecific"
FONT_DESCENT 25
FONT_ASCENT 38
DEFAULT_CHAR 32
ENDPROPERTIES
CHARS 228
STARTCHAR Villa
ENCODING 1
SWIDTH 627 0
DWIDTH 19 0
BBX 18 25 1 -5
BITMAP
004e00
00ca00
012a00
061a00
0dea00
192500
31e200
7ff900
9002c0
11e200
127200
137200
13f200
121200
131200
132200
122600
122600
1ffc00
03e000
07e000
07e000
0fa000
17a000
001000
ENDCHAR
STARTCHAR Kooz
ENCODING 2
SWIDTH 746 0
DWIDTH 22 0
BBX 21 24 1 -4
BITMAP
080000
e7f800
1e5c00
1e2c00
0c3700
0b3f80
0ca200
4b2e00
491400
3dcdc0
6e1820
47e010
4c0008
980508
b00eb8
b00280
d01110
500010
500010
480008
480208
280188
080040
000030
ENDCHAR
STARTCHAR Andy
ENCODING 3
SWIDTH 1000 0
DWIDTH 30 0
BBX 23 22 2 0
BITMAP
c00000
801c00
c01c00
001c00
a01800
a01808
a01870
b81f80
0ff900
4e5080
c09980
a0fe00
000600
c00100
a00100
c00600
001c00
407000
c0c000
418006
c0c038
007fc0
ENDCHAR
STARTCHAR Spooky
ENCODING 4
SWIDTH 535 0
DWIDTH 16 0
BBX 18 18 0 0
BITMAP
000400
300800
181800
1c3800
17d800
0c1800
4c1800
2be8c0
3bef00
db8800
319f80
088800
108800
7cbe00
19d800
081800
081000
001000
ENDCHAR
STARTCHAR space
ENCODING 32
SWIDTH 263 0
DWIDTH 8 0
BBX 0 0 0 0
BITMAP
ENDCHAR
STARTCHAR BckspcKey
ENCODING 33
SWIDTH 1981 0
DWIDTH 59 0
BBX 55 23 2 -4
BITMAP
fffffffffffffe
80000000000002
80000000000002
80000000000002
80000000000002
9e03c431e3c1e2
90846422322232
90482444121412
90482484021412
90480502021402
90880703023402
9f880600c3e402
90480500620402
90480480320402
906824c4120412
90482444120412
90c46426320232
9f03c413e201e2
80000000000002
80000000000002
80000000000002
80000000000002
fffffffffffffe
ENDCHAR
STARTCHAR HomeKey
ENCODING 34
SWIDTH 1603 0
DWIDTH 48 0
BBX 44 23 2 -4
BITMAP
fffffffffff0
800000000010
800000000010
800000000010
800000000010
9043c3019f90
904423019010
904c13039010
904812829010
904812829010
904812869010
9fc812449f10
904812449010
904812449010
904812289010
904c32289010
904422289010
9043c2109f90
800000000010
800000000010
800000000010
800000000010
fffffffffff0
ENDCHAR
STARTCHAR PgupKey
ENCODING 35
SWIDTH 1444 0
DWIDTH 43 0
BBX 39 23 2 -4
BITMAP
fffffffffe
8000000002
8000000002
8000000002
8000000002
9f07c413c2
908c641222
90d8241212
90d0041212
90d0041212
9090041222
9f11e413c2
9010241202
9010241202
9010241202
9018241202
900c222202
9007e1c202
8000000002
8000000002
8000000002
8000000002
fffffffffe
ENDCHAR
STARTCHAR PgdwnKey
ENCODING 36
SWIDTH 1999 0
DWIDTH 60 0
BBX 56 23 2 -4
BITMAP
ffffffffffffff
80000000000001
80000000000001
80000000000001
80000000000001
9f07c7c4081609
908c64761c3609
90d82412142709
90d00412142509
90d00412142589
90900413246489
9f11e4112244c9
90102411224449
90102411224469
90102411428429
90182410c18439
900c2460c18419
9007e7c0c18419
80000000000001
80000000000001
80000000000001
80000000000001
ffffffffffffff
ENDCHAR
STARTCHAR EndKey
ENCODING 37
SWIDTH 1187 0
DWIDTH 36 0
BBX 32 23 2 -4
BITMAP
ffffffff
80000001
80000001
80000001
80000001
9f9827e1
90182431
90142411
90142419
90162419
90122419
9f932419
90112419
9011a419
9010a419
9010e411
90106431
9f9067e1
80000001
80000001
80000001
80000001
ffffffff
ENDCHAR
STARTCHAR FilledHeart
ENCODING 38
SWIDTH 605 0
DWIDTH 18 0
BBX 16 17 1 0
BITMAP
3c3c
7e7e
ffff
ffff
ffff
ffff
ffff
7ffe
7ffe
3ffc
1ff8
0ff0
07e0
03c0
0180
0180
0080
ENDCHAR
STARTCHAR Euro
ENCODING 39
SWIDTH 600 0
DWIDTH 18 0
BBX 17 18 0 -1
BITMAP
01f200
07ff80
0fff00
1e0f00
1c0700
380380
7ffa00
fff800
380000
380000
7ff000
ffe000
1c0000
1c0300
1f0f80
0fff00
07fe00
01f800
ENDCHAR
STARTCHAR CapitalOE
ENCODING 40
SWIDTH 600 0
DWIDTH 18 0
BBX 18 17 0 0
BITMAP
07ff80
0fff80
3fff80
3ce180
78e180
70ed80
e0ec00
e0fc00
e0fc00
e0ec00
e0ec00
f0edc0
70e1c0
78e1c0
3fffc0
1fffc0
07ffc0
ENDCHAR
STARTCHAR OE
ENCODING 41
SWIDTH 600 0
DWIDTH 18 0
BBX 18 14 0 0
BITMAP
1f1e00
3fbf00
7fff80
71f380
e0e1c0
e0e1c0
e0ffc0
e0ffc0
e0e000
e0e000
71f040
7fffc0
3fbfc0
1e1f00
ENDCHAR
STARTCHAR ABar
ENCODING 42
SWIDTH 600 0
DWIDTH 18 0
BBX 16 18 1 0
BITMAP
7ffe
7ffe
0000
0000
07e0
3ff8
7ff8
383c
001c
0ffc
3ffc
7ffc
f01c
e01c
f07c
7fff
3fdf
1f00
ENDCHAR
STARTCHAR ACup
ENCODING 43
SWIDTH 600 0
DWIDTH 18 0
BBX 16 19 1 0
BITMAP
780e
381c
1ffc
0ff8
01c0
07e0
3ff8
7ff8
383c
001c
0ffc
3ffc
7ffc
f01c
e01c
f07c
7fff
3fdf
1f00
ENDCHAR
STARTCHAR CapitalABar
ENCODING 44
SWIDTH 600 0
DWIDTH 18 0
BBX 18 22 0 0
BITMAP
1ffe00
1ffe00
000000
000000
000000
1fe000
1fe000
1fe000
03f000
03f000
033800
073800
061c00
0e1c00
0ffc00
1ffe00
1ffe00
380700
380700
fe1fc0
fe1fc0
fe1fc0
ENDCHAR
STARTCHAR CapitalACup
ENCODING 45
SWIDTH 600 0
DWIDTH 18 0
BBX 18 23 0 0
BITMAP
180700
1c0e00
0ffc00
07f800
01e000
000000
1fe000
1fe000
1fe000
03f000
03f000
033800
073800
061c00
0e1c00
0ffc00
1ffe00
1ffe00
380700
380700
fe1fc0
fe1fc0
fe1fc0
ENDCHAR
STARTCHAR CAcute
ENCODING 46
SWIDTH 600 0
DWIDTH 18 0
BBX 14 20 2 0
BITMAP
00f0
01c0
0380
0700
0000
0000
0790
1ff8
3ff8
7838
7018
e018
e000
e000
e000
7018
783c
3ff8
1ff0
07c0
ENDCHAR
STARTCHAR CHacek
ENCODING 47
SWIDTH 600 0
DWIDTH 18 0
BBX 14 20 2 0
BITMAP
3010
3870
1ee0
07c0
0380
0000
0790
1ff8
3ff8
7838
7018
e018
e000
e000
e000
7018
783c
3ff8
1ff0
07c0
ENDCHAR
STARTCHAR ScriptZero
ENCODING 48
SWIDTH 588 0
DWIDTH 18 0
BBX 14 17 2 0
BITMAP
03e0
0ff8
1e18
3c1c
380c
700c
600c
600c
c00c
c018
c018
c038
c030
e070
71e0
7fc0
1f00
ENDCHAR
STARTCHAR ScriptOne
ENCODING 49
SWIDTH 600 0
DWIDTH 18 0
BBX 10 17 4 0
BITMAP
0180
1f80
3f80
3380
0300
0300
0300
0700
0700
0600
0600
0600
0e00
0c00
0c00
ffc0
ffc0
ENDCHAR
STARTCHAR ScriptTwo
ENCODING 50
SWIDTH 588 0
DWIDTH 18 0
BBX 14 17 2 0
BITMAP
03f0
0ff8
1e1c
180c
180c
000c
0018
0038
0070
01e0
03c0
0700
1e00
3c00
7018
fff8
fff8
ENDCHAR
STARTCHAR ScriptThree
ENCODING 51
SWIDTH 600 0
DWIDTH 18 0
BBX 14 17 2 0
BITMAP
01f0
07f8
0e1c
000c
000c
001c
0038
01f0
03f0
0038
0018
0018
0018
2030
f0f0
7fe0
1f80
ENDCHAR
STARTCHAR ScriptFour
ENCODING 52
SWIDTH 600 0
DWIDTH 18 0
BBX 14 17 2 0
BITMAP
003c
007c
00f8
01d8
0398
03b8
0738
0e30
1c30
3870
7070
fff8
fff0
00e0
00e0
07f0
0fe0
ENDCHAR
STARTCHAR ScriptFive
ENCODING 53
SWIDTH 600 0
DWIDTH 18 0
BBX 14 17 2 0
BITMAP
07fc
0ffc
0c00
0c00
0c00
1ff0
1ff8
1c1c
000c
000c
000c
000c
001c
6038
f070
7fe0
1f80
ENDCHAR
STARTCHAR ScriptSix
ENCODING 54
SWIDTH 548 0
DWIDTH 16 0
BBX 13 17 3 0
BITMAP
01f0
07f8
0f08
1c00
3800
7000
6f80
7fc0
f8e0
e060
c060
c060
c0e0
c0c0
63c0
7f80
3e00
ENDCHAR
STARTCHAR ScriptSeven
ENCODING 55
SWIDTH 559 0
DWIDTH 17 0
BBX 13 17 3 0
BITMAP
7ff8
fff8
c030
0070
0060
00e0
01c0
0180
0380
0300
0700
0600
0e00
1c00
1800
3800
7000
ENDCHAR
STARTCHAR ScriptEight
ENCODING 56
SWIDTH 548 0
DWIDTH 16 0
BBX 14 17 2 0
BITMAP
03e0
0ff8
1c1c
380c
300c
3018
3838
1ff0
3fe0
7070
6030
c030
c030
c060
e1e0
7fc0
3f00
ENDCHAR
STARTCHAR ScriptNine
ENCODING 57
SWIDTH 548 0
DWIDTH 16 0
BBX 14 17 2 0
BITMAP
03f0
0ff8
1e18
1c1c
380c
300c
301c
301c
387c
1ff8
0fd8
0038
0070
00e0
47c0
ff00
7c00
ENDCHAR
STARTCHAR ODoubleAcute
ENCODING 58
SWIDTH 600 0
DWIDTH 18 0
BBX 16 20 1 0
BITMAP
078f
0f1e
1e3c
1c70
2000
0000
07e0
1ff8
3ffc
781e
700e
e007
e007
e007
e007
700e
781e
3ffc
1ff8
07e0
ENDCHAR
STARTCHAR CapitalODoubleAcute
ENCODING 59
SWIDTH 600 0
DWIDTH 18 0
BBX 16 24 1 -1
BITMAP
078f
0f1c
1e38
3870
0000
07e0
0ff0
1ff8
3c3c
781e
700e
f00f
e007
e007
e007
e007
e007
f00f
700e
781e
3c3c
1ff8
0ff0
07e0
ENDCHAR
STARTCHAR SHacek
ENCODING 60
SWIDTH 600 0
DWIDTH 18 0
BBX 13 20 2 0
BITMAP
6030
7070
3de0
1f80
0f00
0000
0f30
3ff0
7ff0
f070
e030
7028
7fe0
3ff0
e078
e038
e038
fff8
fff0
efc0
ENDCHAR
STARTCHAR CapitalSHacek
ENCODING 61
SWIDTH 600 0
DWIDTH 18 0
BBX 15 24 2 0
BITMAP
3018
3838
1ef0
0fe0
07c0
0000
03cc
0ffe
3ffc
381c
701c
700c
700c
3c00
3fe0
0ff8
01fc
601e
e00e
700e
701c
7ffc
7ff8
e7e0
ENDCHAR
STARTCHAR UDoubleAcute
ENCODING 62
SWIDTH 600 0
DWIDTH 18 0
BBX 17 20 0 0
BITMAP
01e780
038f00
071e00
1e3800
000000
000000
fc3e00
fc3e00
fc3e00
1c0e00
1c0e00
1c0e00
1c0e00
1c0e00
1c0e00
1c0e00
1e3e00
0fff80
0fff80
03c000
ENDCHAR
STARTCHAR CapitalUDoubleAcute
ENCODING 63
SWIDTH 600 0
DWIDTH 18 0
BBX 17 24 1 -1
BITMAP
03cf00
071e00
0e3c00
1c7000
000000
000000
ff7f80
ff7f80
ff7f80
380e00
380e00
380e00
380e00
380e00
380e00
380e00
380e00
380e00
380e00
3c1e00
1c3c00
1ffc00
0ff800
03e000
ENDCHAR
STARTCHAR HSlash
ENCODING 64
SWIDTH 600 0
DWIDTH 18 0
BBX 16 19 0 0
BITMAP
1f80
1f00
1f00
0300
3fe0
3fe0
0678
06fc
07fe
0f8e
0f0e
0e0e
0c0c
1c1c
1c1c
1c1c
7e7f
fe7f
fe7e
ENDCHAR
STARTCHAR ScriptCapA
ENCODING 65
SWIDTH 695 0
DWIDTH 21 0
BBX 21 17 1 0
BITMAP
003f98
01ffe0
07ffe0
0f0fe0
0e1cc0
0c1cc0
0e39c0
0c7fc0
03ffc0
03f9c0
0061c0
00e1c0
c0e1c0
c1c0c0
e3c0c0
7f80e0
3e0040
ENDCHAR
STARTCHAR ScriptCapB
ENCODING 66
SWIDTH 669 0
DWIDTH 20 0
BBX 19 17 1 0
BITMAP
00fe00
03ffc0
07e3e0
0ee0e0
1cc0e0
3881c0
398780
3dff00
19ff00
018780
0301c0
0301c0
0701c0
1e0380
7c0f00
fffe00
47f000
ENDCHAR
STARTCHAR ScriptCapC
ENCODING 67
SWIDTH 569 0
DWIDTH 17 0
BBX 16 18 1 -1
BITMAP
01f8
07fe
0f0f
1c07
3807
3807
7000
7000
e000
e000
e000
e008
e01c
701c
701c
3878
1ff0
0fc0
ENDCHAR
STARTCHAR ScriptCapD
ENCODING 68
SWIDTH 673 0
DWIDTH 20 0
BBX 19 18 1 -1
BITMAP
01fc00
0fff00
3fe780
79c1c0
7181c0
e180e0
e180e0
e380e0
7380e0
4380e0
0300e0
0301c0
0701c0
060380
1e0780
fc0f00
fffc00
43f000
ENDCHAR
STARTCHAR ScriptCapE
ENCODING 69
SWIDTH 579 0
DWIDTH 17 0
BBX 16 18 1 0
BITMAP
01f0
07fc
0f1e
1c06
1c06
1c00
0f00
07f0
1ff0
3c02
7006
6007
e003
e006
e006
783c
3ff8
0fe0
ENDCHAR
STARTCHAR ScriptCapF
ENCODING 70
SWIDTH 707 0
DWIDTH 21 0
BBX 23 20 1 -2
BITMAP
000004
03fffe
0ffffc
3e38f0
387000
706000
60e000
73ff00
73ff00
30c000
01c000
01c000
018000
038000
038000
070000
070000
5e0000
7c0000
f00000
ENDCHAR
STARTCHAR ScriptCapG
ENCODING 71
SWIDTH 616 0
DWIDTH 18 0
BBX 18 21 0 -4
BITMAP
003e00
00ff80
03c3c0
0781c0
0703c0
0e0380
1c0100
1c0000
383f80
38ff80
386700
384e00
381e00
383e00
1c7c00
1fec00
079800
603800
f07000
7fe000
1f8000
ENDCHAR
STARTCHAR ScriptCapH
ENCODING 72
SWIDTH 827 0
DWIDTH 25 0
BBX 24 19 1 -1
BITMAP
000806
03f007
0ff00e
3e700e
70601c
e0601c
e0e018
e0e478
70fff8
61fff0
01c030
018070
038070
038070
030060
070060
0e0070
1c0030
080000
ENDCHAR
STARTCHAR ScriptCapI
ENCODING 73
SWIDTH 645 0
DWIDTH 19 0
BBX 18 18 1 0
BITMAP
000080
01ffc0
07ff80
023000
007000
006000
00e000
00c000
00c000
00c000
01c000
01c000
018000
038000
030000
0f6000
fff000
410000
ENDCHAR
STARTCHAR ScriptCapJ
ENCODING 74
SWIDTH 711 0
DWIDTH 21 0
BBX 25 22 -3 -4
BITMAP
00000300
001fff80
007fff00
01e06000
01c0c000
0381c000
0381c000
03c18000
01838000
00038000
00030000
00030000
00030000
00030000
00070000
00070000
20060000
c00e0000
e01c0000
703c0000
3ff00000
1fc00000
ENDCHAR
STARTCHAR ScriptCapK
ENCODING 75
SWIDTH 829 0
DWIDTH 25 0
BBX 24 19 1 -1
BITMAP
003800
07f81e
1ff07f
3c30f3
7073c0
e06780
e0ef00
f0fe00
70fc00
21fe00
01ce00
018600
038700
038300
030380
0701c0
1e00e0
3c0060
180020
ENDCHAR
STARTCHAR ScriptCapL
ENCODING 76
SWIDTH 728 0
DWIDTH 22 0
BBX 21 20 1 -2
BITMAP
0007c0
000fe0
001c70
001870
003800
003800
003000
007000
007000
007000
006000
00e000
00c000
01c000
038000
3f0030
7fc038
fffff0
40ffe0
000fc0
ENDCHAR
STARTCHAR ScriptCapM
ENCODING 77
SWIDTH 931 0
DWIDTH 28 0
BBX 27 20 1 -2
BITMAP
00400040
00c001c0
00e003c0
00e003c0
01e007c0
01f00f80
01b01f80
01b81f80
03383b80
03187380
071ce380
061dc380
0e0f8380
0e0f0380
1c0f0380
1c0e0380
380e01c0
700c01e0
f00000c0
c0000000
ENDCHAR
STARTCHAR ScriptCapN
ENCODING 78
SWIDTH 811 0
DWIDTH 24 0
BBX 23 18 1 -1
BITMAP
000004
01800e
03801c
03c038
03c030
03c070
07e070
067060
063860
0e3ce0
0e1cc0
0c0ec0
1c07c0
1c03c0
380380
780180
f00180
400000
ENDCHAR
STARTCHAR ScriptCapO
ENCODING 79
SWIDTH 608 0
DWIDTH 18 0
BBX 17 19 1 -1
BITMAP
00f800
03fe00
078f00
0e0700
1c0380
380380
780380
700380
700380
e00380
e00700
e00700
e00700
e00e00
e01c00
703c00
787800
3fe000
1f8000
ENDCHAR
STARTCHAR ScriptCapP
ENCODING 80
SWIDTH 636 0
DWIDTH 19 0
BBX 18 18 1 -1
BITMAP
01fc00
0fff00
1fc780
3d83c0
7181c0
f381c0
e301c0
e30380
f71f00
6ffe00
07f000
060000
0e0000
0c0000
1c0000
380000
380000
100000
ENDCHAR
STARTCHAR ScriptCapQ
ENCODING 81
SWIDTH 630 0
DWIDTH 19 0
BBX 18 19 1 -1
BITMAP
00f800
03fe00
078f00
0e0700
1c0380
380380
700380
700380
e00380
e00300
e00700
e00700
e78e00
e7de00
f4fc00
70f800
78f000
3fffc0
0f9f80
ENDCHAR
STARTCHAR ScriptCapR
ENCODING 82
SWIDTH 600 0
DWIDTH 18 0
BBX 17 18 1 0
BITMAP
01fc00
0fff00
1fc700
3f8380
730180
630380
e30700
e70f00
77fc00
27f800
067000
063000
0e3800
0c1c00
1c1c00
180e00
700700
200100
ENDCHAR
STARTCHAR ScriptCapS
ENCODING 83
SWIDTH 608 0
DWIDTH 18 0
BBX 17 19 1 -1
BITMAP
00fc00
01ff00
038780
070380
070380
070380
078000
03c000
01f000
00f800
003c00
001e00
800e00
e00e00
e00e00
f01c00
783c00
3ff000
0fc000
ENDCHAR
STARTCHAR ScriptCapT
ENCODING 84
SWIDTH 695 0
DWIDTH 21 0
BBX 23 18 1 -1
BITMAP
01e00c
1ffffe
783ff8
707000
e07000
e06000
f0e000
60e000
00c000
01c000
01c000
018000
038000
030000
070000
0e0000
1c0000
080000
ENDCHAR
STARTCHAR ScriptCapU
ENCODING 85
SWIDTH 814 0
DWIDTH 24 0
BBX 23 18 1 0
BITMAP
007008
03f00e
0fe01c
3f601c
786038
f0c038
e0c030
e1c070
e18070
7180e0
2381e0
0383e0
0307c0
070fc0
071dc0
0739c0
07e1e0
0180c0
ENDCHAR
STARTCHAR ScriptCapV
ENCODING 86
SWIDTH 799 0
DWIDTH 24 0
BBX 22 17 1 0
BITMAP
00f010
07f03c
1ff01c
3c701c
707038
e07038
e07070
e070e0
7038c0
203980
003b80
001f00
001e00
001c00
001c00
003800
003800
ENDCHAR
STARTCHAR ScriptCapW
ENCODING 87
SWIDTH 1063 0
DWIDTH 32 0
BBX 30 18 1 0
BITMAP
00300008
01f0701c
07e0601c
1f60601c
7c606038
f0606038
e070f070
e070f0f0
7031f1e0
6033b1c0
00333380
00373700
003e3e00
003c3c00
00383c00
00383800
00303800
00303000
ENDCHAR
STARTCHAR ScriptCapX
ENCODING 88
SWIDTH 622 0
DWIDTH 19 0
BBX 18 19 0 -1
BITMAP
020180
0383c0
0381c0
01c3c0
01c780
00cf00
00de00
00f800
01f000
03e000
07e000
1e7000
3c3000
783000
703800
e01800
e01c00
f00e00
400400
ENDCHAR
STARTCHAR ScriptCapY
ENCODING 89
SWIDTH 703 0
DWIDTH 21 0
BBX 20 20 0 -2
BITMAP
000020
018030
03c070
01c060
00e0e0
00e1c0
00e1c0
00e3c0
00e780
00ef80
00fd80
00fb80
00f300
00e700
000600
e00e00
e01c00
f07800
7ff000
0fc000
ENDCHAR
STARTCHAR ScriptCapZ
ENCODING 90
SWIDTH 802 0
DWIDTH 24 0
BBX 23 20 0 -2
BITMAP
000004
03fffe
0ffffc
1e07e0
0803c0
000380
000700
000e00
001c00
003800
007000
00f000
00e000
01c000
038000
ff0000
ff8018
4ff038
01fff0
001fe0
ENDCHAR
STARTCHAR RightTriangleLeft
ENCODING 91
SWIDTH 600 0
DWIDTH 18 0
BBX 13 18 3 0
BITMAP
0008
0010
0030
0030
0070
00f0
00f0
01f0
03b0
03b0
0730
0e30
0e30
1c30
1830
3830
7ff0
fff0
ENDCHAR
STARTCHAR RightTriangleRight
ENCODING 92
SWIDTH 600 0
DWIDTH 18 0
BBX 11 18 3 0
BITMAP
8000
8000
c000
c000
e000
e000
f000
f800
d800
dc00
cc00
c600
c700
c300
c380
c180
ffc0
ffe0
ENDCHAR
STARTCHAR DoubleRightTriangle
ENCODING 93
SWIDTH 600 0
DWIDTH 18 0
BBX 17 18 0 0
BITMAP
00a000
012000
012000
032000
033000
033000
073800
073800
0f3800
0d2c00
1d2c00
192600
192600
312600
312300
612300
7f3f80
ff3f80
ENDCHAR
STARTCHAR Female
ENCODING 94
SWIDTH 600 0
DWIDTH 18 0
BBX 12 17 3 0
BITMAP
1f00
3fc0
71e0
e070
c030
c030
c030
c030
6060
7be0
3fc0
0e00
0e00
3fc0
3fc0
0e00
0e00
ENDCHAR
STARTCHAR Male
ENCODING 95
SWIDTH 600 0
DWIDTH 18 0
BBX 17 17 2 0
BITMAP
000100
000780
000f80
000700
0fcf00
1ffc00
387800
601800
e01c00
c00c00
c00c00
c00c00
e01c00
601800
387800
1fe000
0fc000
ENDCHAR
STARTCHAR NearlyEquals
ENCODING 96
SWIDTH 600 0
DWIDTH 18 0
BBX 12 19 3 -3
BITMAP
1800
3c00
3c00
1800
0000
fff0
fff0
fff0
0000
0000
fff0
fff0
fff0
0000
0000
0180
03c0
03c0
0180
ENDCHAR
STARTCHAR ScriptA
ENCODING 97
SWIDTH 506 0
DWIDTH 15 0
BBX 14 13 1 0
BITMAP
07c0
1ff0
3fe0
78e0
70c0
e1c0
e1c0
c1c0
c398
cffc
fff8
fbe0
7180
ENDCHAR
STARTCHAR ScriptB
ENCODING 98
SWIDTH 504 0
DWIDTH 15 0
BBX 14 19 1 0
BITMAP
0400
0e00
0e00
0e00
0e00
0c00
1c70
1df8
1ffc
1f9c
1e1c
3c18
3838
3038
7070
70e0
61c0
ff80
fe00
ENDCHAR
STARTCHAR ScriptC
ENCODING 99
SWIDTH 448 0
DWIDTH 13 0
BBX 12 13 1 0
BITMAP
07c0
0ff0
3c70
3800
7000
7000
e000
e000
e000
e0c0
f3c0
7f80
3e00
ENDCHAR
STARTCHAR ScriptD
ENCODING 100
SWIDTH 553 0
DWIDTH 17 0
BBX 16 20 1 0
BITMAP
0004
000f
000e
001c
001c
0038
0038
07f8
0ff0
1c70
3870
70e0
70e0
61e0
e3c0
e7c0
efc0
fdc0
79e0
00c0
ENDCHAR
STARTCHAR ScriptE
ENCODING 101
SWIDTH 422 0
DWIDTH 13 0
BBX 11 13 1 0
BITMAP
07c0
0fe0
1ce0
38e0
73c0
7f80
fe00
e000
e100
e1c0
f380
7f00
3c00
ENDCHAR
STARTCHAR ScriptF
ENCODING 102
SWIDTH 580 0
DWIDTH 17 0
BBX 17 23 0 -3
BITMAP
001e00
007f80
00fb00
01e000
01c000
038000
038000
0ff000
0ff000
070000
070000
060000
0e0000
0e0000
0e0000
0c0000
1c0000
1c0000
180000
380000
f00000
e00000
400000
ENDCHAR
STARTCHAR ScriptG
ENCODING 103
SWIDTH 569 0
DWIDTH 17 0
BBX 16 19 0 -6
BITMAP
00fc
01ff
0386
060e
0e0e
0c1c
1c3c
187c
18fc
19f8
1fb8
1f38
1e70
0070
00e0
01e0
67c0
ff80
7e00
ENDCHAR
STARTCHAR ScriptH
ENCODING 104
SWIDTH 486 0
DWIDTH 15 0
BBX 13 19 1 0
BITMAP
0200
0600
0600
0600
0600
0600
0cf0
0df8
0fb8
1f30
1e30
1c70
3860
30e0
70e0
70c0
60e0
e0e0
4040
ENDCHAR
STARTCHAR ScriptI
ENCODING 105
SWIDTH 269 0
DWIDTH 8 0
BBX 7 18 1 0
BITMAP
06
06
06
0c
00
08
18
18
38
30
70
70
60
e0
e0
e0
f0
60
ENDCHAR
STARTCHAR ScriptJ
ENCODING 106
SWIDTH 508 0
DWIDTH 15 0
BBX 15 24 0 -6
BITMAP
0006
0006
000c
000c
0000
001c
0018
0018
0018
0018
0038
0030
0030
0070
0070
0060
00e0
00e0
00c0
01c0
0380
6300
ff00
3c00
ENDCHAR
STARTCHAR ScriptK
ENCODING 107
SWIDTH 462 0
DWIDTH 14 0
BBX 12 20 1 0
BITMAP
0c00
1e00
0e00
0e00
0e00
0e00
1c10
1c70
1c70
19e0
3fc0
3f80
3e00
3e00
7700
6700
6380
e3c0
c1c0
4080
ENDCHAR
STARTCHAR ScriptL
ENCODING 108
SWIDTH 274 0
DWIDTH 8 0
BBX 7 21 1 -1
BITMAP
04
0e
06
0e
0e
0e
0c
0c
1c
18
18
38
30
30
70
60
60
e0
e0
e0
40
ENDCHAR
STARTCHAR ScriptM
ENCODING 109
SWIDTH 729 0
DWIDTH 22 0
BBX 20 13 1 0
BITMAP
080000
38f0e0
19fbf0
1bfff0
1f3e70
1c3c70
3838e0
3830e0
3070c0
7061c0
60e1c0
e0c1c0
41c080
ENDCHAR
STARTCHAR ScriptN
ENCODING 110
SWIDTH 483 0
DWIDTH 14 0
BBX 13 13 1 0
BITMAP
1c10
1cf8
1ff8
1fb8
1e38
3c70
3870
3070
70e0
60e0
60e0
e0f0
4040
ENDCHAR
STARTCHAR ScriptO
ENCODING 111
SWIDTH 455 0
DWIDTH 14 0
BBX 12 14 1 -1
BITMAP
03c0
0fe0
1cf0
3870
7070
7070
e070
e0f0
e0e0
e1e0
e1c0
f380
7f00
3c00
ENDCHAR
STARTCHAR ScriptP
ENCODING 112
SWIDTH 531 0
DWIDTH 16 0
BBX 15 21 1 -6
BITMAP
0400
0e00
0e7c
0ffe
0fee
0f8e
1f0e
1e1c
1c1c
383c
3838
70f0
ffe0
7fc0
7f00
7000
6000
6000
e000
e000
4000
ENDCHAR
STARTCHAR ScriptQ
ENCODING 113
SWIDTH 508 0
DWIDTH 15 0
BBX 14 19 1 -6
BITMAP
01f0
07fc
0e38
1c38
3870
7870
70f0
f1f0
e3e0
e7e0
ffe0
fce0
78e0
00c0
00c0
01c0
01c0
01c0
0180
ENDCHAR
STARTCHAR ScriptR
ENCODING 114
SWIDTH 439 0
DWIDTH 13 0
BBX 12 13 1 0
BITMAP
1000
39f0
1fe0
1f20
1e00
3c00
3800
3000
7000
7000
6000
e000
6000
ENDCHAR
STARTCHAR ScriptS
ENCODING 115
SWIDTH 506 0
DWIDTH 15 0
BBX 14 13 1 0
BITMAP
03f0
0ffc
1e18
1c00
0e00
0f80
07c0
01e0
00f0
0070
60f0
ffe0
3f80
ENDCHAR
STARTCHAR ScriptT
ENCODING 116
SWIDTH 324 0
DWIDTH 10 0
BBX 8 17 1 0
BITMAP
0c
0c
0c
1c
ff
ff
ff
38
70
70
70
e0
e0
e6
ee
fc
78
ENDCHAR
STARTCHAR ScriptU
ENCODING 117
SWIDTH 483 0
DWIDTH 14 0
BBX 13 13 1 0
BITMAP
1038
7838
3830
3870
30f0
70e0
61e0
e3e0
e7c0
dfc0
fdc0
f1e0
20c0
ENDCHAR
STARTCHAR ScriptV
ENCODING 118
SWIDTH 432 0
DWIDTH 13 0
BBX 11 13 1 0
BITMAP
4040
c1e0
e0e0
61c0
61c0
7380
7380
7700
3e00
3e00
3c00
3800
3000
ENDCHAR
STARTCHAR ScriptW
ENCODING 119
SWIDTH 653 0
DWIDTH 20 0
BBX 18 13 1 0
BITMAP
604080
e1c1c0
61c1c0
61c380
63c380
67c700
67cf00
6ece00
7cdc00
7cf800
78f800
70f000
60e000
ENDCHAR
STARTCHAR ScriptX
ENCODING 120
SWIDTH 552 0
DWIDTH 17 0
BBX 15 14 1 0
BITMAP
0400
060e
070e
033c
0378
03f0
03c0
0f80
1fc0
38c0
70e0
e070
c070
8030
ENDCHAR
STARTCHAR ScriptY
ENCODING 121
SWIDTH 562 0
DWIDTH 17 0
BBX 16 20 0 -6
BITMAP
0206
0707
0707
0706
070e
0e1e
0e1c
0e3c
0c7c
1cfc
1dfc
1fd8
0f98
0e38
0030
0070
00e0
43c0
ff80
7e00
ENDCHAR
STARTCHAR ScriptZ
ENCODING 122
SWIDTH 547 0
DWIDTH 16 0
BBX 15 13 1 0
BITMAP
0004
1ffc
1ffe
087c
0070
01e0
03c0
0780
0f00
3c00
ffc4
7ffe
00fc
ENDCHAR
STARTCHAR ScriptAltL
ENCODING 123
SWIDTH 448 0
DWIDTH 13 0
BBX 12 19 1 0
BITMAP
0060
01f0
03f0
03f0
0770
07e0
0fe0
0fc0
0f80
0f00
1e00
7c00
fc00
7800
3800
3800
3800
3c00
1800
ENDCHAR
STARTCHAR LogicalNand
ENCODING 124
SWIDTH 692 0
DWIDTH 21 0
BBX 18 17 1 0
BITMAP
7fff80
7fff80
7fff80
07f800
07f800
0ff800
0e1c00
0e1c00
1c1e00
1c0e00
380e00
380700
380700
700780
700380
700380
e001c0
ENDCHAR
STARTCHAR Nand2
ENCODING 125
SWIDTH 861 0
DWIDTH 26 0
BBX 23 27 1 -6
BITMAP
7ffff8
7ffff8
7ffff8
000000
000000
000000
01ff00
03ff00
03ff80
038380
078380
0703c0
0701c0
0f01c0
0e01e0
0e00e0
1e00e0
1c0070
1c0070
3c0070
380038
380038
780038
70001c
70001c
f0001e
e0000e
ENDCHAR
STARTCHAR Nand3
ENCODING 126
SWIDTH 1333 0
DWIDTH 40 0
BBX 37 46 1 -15
BITMAP
3fffffffe0
3fffffffe0
3fffffffe0
0000000000
0000000000
0000000000
0000000000
0000000000
0000000000
001fff8000
001fffc000
003fffc000
003801c000
003800e000
007800e000
007000e000
007000f000
00f0007000
00e0007000
00e0007800
00e0003800
01c0003800
01c0003c00
01c0001c00
03c0001c00
0380001e00
0380000e00
0780000e00
0700000e00
0700000700
0700000700
0e00000700
0e00000380
0e00000380
1e00000380
1c000001c0
1c000001c0
1c000001c0
38000000e0
38000000e0
38000000e0
70000000f0
7000000070
7000000070
f000000078
e000000038
ENDCHAR
STARTCHAR DEL
ENCODING 127
SWIDTH 263 0
DWIDTH 8 0
BBX 0 0 0 0
BITMAP
ENDCHAR
STARTCHAR LogicalNor
ENCODING 128
SWIDTH 692 0
DWIDTH 21 0
BBX 18 17 1 0
BITMAP
7fff80
7fff80
7fff80
000000
f001c0
700380
700380
380780
380700
3c0700
1c0e00
1e0e00
0e1c00
0e1c00
07fc00
07f800
07f800
ENDCHAR
STARTCHAR Nor2
ENCODING 129
SWIDTH 861 0
DWIDTH 26 0
BBX 23 26 1 -6
BITMAP
3ffffc
3ffffc
3ffffc
000000
000000
e0000e
f0000e
70001c
70001c
78001c
380038
380038
3c0078
1c0070
1c0070
0e00f0
0e00e0
0e00e0
0701e0
0701c0
0781c0
0383c0
038380
03ff80
01ff80
01ff00
ENDCHAR
STARTCHAR Nor3
ENCODING 130
SWIDTH 1333 0
DWIDTH 40 0
BBX 37 46 1 -15
BITMAP
3fffffffe0
3fffffffe0
3fffffffe0
0000000000
0000000000
0000000000
0000000000
0000000000
0000000000
0000000000
e000000038
7000000070
7000000070
7000000070
38000000f0
38000000e0
38000000e0
1c000001e0
1c000001c0
1c000001c0
1e000001c0
0e00000380
0e00000380
0f00000380
0700000780
0700000700
0780000700
0380000f00
0380000e00
03c0000e00
01c0001e00
01c0001c00
01e0001c00
00e0001c00
00e0003800
00f0003800
0070003800
0070007800
0078007000
0038007000
003800f000
003800e000
001c00e000
001fffe000
001fffc000
000fffc000
ENDCHAR
STARTCHAR LogicalXor
ENCODING 131
SWIDTH 692 0
DWIDTH 21 0
BBX 18 17 1 0
BITMAP
e001c0
700380
700380
780780
380700
3c0700
1c0e00
1e0e00
0e1e00
0e1c00
07fc00
07f800
07f800
000000
7fff80
7fff80
7fff80
ENDCHAR
STARTCHAR Xor2
ENCODING 132
SWIDTH 861 0
DWIDTH 26 0
BBX 23 26 1 -6
BITMAP
e0000e
f0001e
70001c
70001c
38003c
380038
380038
1c0078
1c0070
1c0070
0e00f0
0e00e0
0f00e0
0701e0
0701c0
0781c0
0383c0
038380
03ff80
01ff80
01ff00
000000
000000
3ffffc
3ffffc
3ffffc
ENDCHAR
STARTCHAR Xor3
ENCODING 133
SWIDTH 1333 0
DWIDTH 40 0
BBX 37 46 1 -15
BITMAP
e000000038
f000000078
7000000070
7000000070
7800000070
38000000e0
38000000e0
38000000e0
1c000001c0
1c000001c0
1c000001c0
0e000003c0
0e00000380
0e00000380
0700000380
0700000700
0700000700
0380000700
0380000f00
0380000e00
03c0000e00
01c0001e00
01c0001c00
01e0001c00
00e0001c00
00e0003800
00f0003800
0070003800
0070007800
0078007000
0038007000
003800f000
003800e000
001c00e000
001fffe000
001fffc000
000fffc000
0000000000
0000000000
0000000000
0000000000
0000000000
0000000000
3fffffffe0
3fffffffe0
3fffffffe0
ENDCHAR
STARTCHAR ConstantC
ENCODING 134
SWIDTH 600 0
DWIDTH 18 0
BBX 15 14 1 0
BITMAP
07c0
1ff0
3ff8
7b3c
660c
ec00
cc00
cc00
cc00
ee00
760c
3ffe
1ffc
07e0
ENDCHAR
STARTCHAR LongEqual
ENCODING 135
SWIDTH 798 0
DWIDTH 24 0
BBX 18 8 3 3
BITMAP
ffffc0
ffffc0
ffffc0
000000
000000
ffffc0
ffffc0
ffffc0
ENDCHAR
STARTCHAR Diffd2
ENCODING 136
SWIDTH 600 0
DWIDTH 18 0
BBX 17 18 2 0
BITMAP
007f80
007f80
007f00
000700
03e700
0fff00
1fff00
3c3e00
781e00
701e00
f01e00
e01c00
e01c00
f03c00
f87c00
7fff00
3fff00
1fbf00
ENDCHAR
STARTCHAR Expe2
ENCODING 137
SWIDTH 600 0
DWIDTH 18 0
BBX 16 14 2 0
BITMAP
01f8
0ffc
1ffe
3e1e
780f
700f
ffff
ffff
fffe
e002
f81c
7ffe
3ff8
0fc0
ENDCHAR
STARTCHAR Imagi2
ENCODING 138
SWIDTH 600 0
DWIDTH 18 0
BBX 14 20 2 0
BITMAP
00f0
00f0
00f0
01f0
01e0
0000
0000
1fe0
1fe0
1fc0
01c0
01c0
03c0
0380
0380
0380
0380
7ffc
fffc
fff8
ENDCHAR
STARTCHAR Imagj2
ENCODING 139
SWIDTH 600 0
DWIDTH 18 0
BBX 16 24 1 -4
BITMAP
000f
000f
000f
001e
001e
0000
0000
0ffe
0ffc
0ffc
001c
001c
003c
0038
0038
0038
0038
0070
0070
0070
40f0
7fe0
7fc0
ff00
ENDCHAR
STARTCHAR CapitalCAcute
ENCODING 140
SWIDTH 600 0
DWIDTH 18 0
BBX 16 25 1 -1
BITMAP
003c
0078
00e0
01c0
0380
0000
03e4
0fff
1ffe
3c1e
780e
7006
f007
e006
e000
e000
e000
e000
f000
7000
7806
3c1f
1ffe
0ffc
03f0
ENDCHAR
STARTCHAR CapitalCHacek
ENCODING 141
SWIDTH 600 0
DWIDTH 18 0
BBX 16 25 1 -1
BITMAP
380c
1c3c
0f70
07e0
03c0
0000
03e4
0fff
1ffe
3c1e
780e
7006
f007
e006
e000
e000
e000
e000
f000
7000
7806
3c1f
1ffe
0ffc
03f0
ENDCHAR
STARTCHAR EBar
ENCODING 142
SWIDTH 600 0
DWIDTH 18 0
BBX 14 18 2 0
BITMAP
7ff8
7ff8
0000
0000
07c0
1fe0
3ff0
7838
701c
fffc
fffc
fffc
e000
7004
783c
3ffc
1ff0
07c0
ENDCHAR
STARTCHAR ECup
ENCODING 143
SWIDTH 600 0
DWIDTH 18 0
BBX 14 19 2 0
BITMAP
7038
3878
3ff0
1fe0
0300
07c0
1fe0
3ff0
7838
701c
fffc
fffc
fffc
e000
7004
783c
3ffc
1ff0
07c0
ENDCHAR
STARTCHAR CapitalEBar
ENCODING 144
SWIDTH 600 0
DWIDTH 18 0
BBX 15 22 1 0
BITMAP
3ffc
3ffc
3ffc
0000
0000
fffe
fffe
fffe
1806
1806
1866
1fe0
1fe0
1fe0
1860
1860
1866
1806
1806
fffe
fffe
fffe
ENDCHAR
STARTCHAR CapitalECup
ENCODING 145
SWIDTH 600 0
DWIDTH 18 0
BBX 15 23 1 0
BITMAP
301c
381c
1ff8
0ff0
03c0
0000
fffe
fffe
fffe
1806
1806
1866
1fe0
1fe0
1fe0
1860
1860
1866
1806
1806
fffe
fffe
fffe
ENDCHAR
STARTCHAR ICup
ENCODING 146
SWIDTH 600 0
DWIDTH 18 0
BBX 13 19 2 0
BITMAP
f038
7078
3ff0
1fe0
0100
7f00
7f00
7f00
0300
0300
0300
0300
0300
0300
0300
0300
fff8
fff8
fff8
ENDCHAR
STARTCHAR CapitalICup
ENCODING 147
SWIDTH 600 0
DWIDTH 18 0
BBX 13 23 2 0
BITMAP
f038
7878
3ff0
1fe0
0780
0000
fff8
fff8
fff8
0300
0300
0300
0300
0300
0300
0300
0300
0300
0300
0300
fff8
fff8
fff8
ENDCHAR
STARTCHAR LSlash
ENCODING 148
SWIDTH 600 0
DWIDTH 18 0
BBX 13 19 3 0
BITMAP
7e00
fe00
fe00
0600
0600
0600
0610
0670
07e0
0f80
3e00
7600
4600
0600
0600
0600
fff8
fff8
fff8
ENDCHAR
STARTCHAR CapitalLSlash
ENCODING 149
SWIDTH 600 0
DWIDTH 18 0
BBX 15 17 1 0
BITMAP
ff80
ff80
ff80
1800
1800
1820
18c0
1bc0
1f00
7c06
f806
9806
1806
1806
fffe
fffe
fffe
ENDCHAR
STARTCHAR Mercury
ENCODING 150
SWIDTH 600 0
DWIDTH 18 0
BBX 9 17 4 0
BITMAP
c180
c180
e380
7f00
7f00
e380
c180
c180
c180
e300
7f00
1c00
1c00
7f80
7f80
1c00
1c00
ENDCHAR
STARTCHAR Venus
ENCODING 151
SWIDTH 600 0
DWIDTH 18 0
BBX 12 17 3 0
BITMAP
1f00
3fc0
70e0
e070
c030
c030
c030
c030
6060
70e0
3fc0
0f00
0600
3fc0
3fc0
0600
0600
ENDCHAR
STARTCHAR Earth
ENCODING 152
SWIDTH 600 0
DWIDTH 18 0
BBX 12 17 3 0
BITMAP
0600
0600
3fc0
3fc0
0600
0f00
3fc0
70e0
6060
c030
c030
c030
c030
e070
70e0
3fc0
0f80
ENDCHAR
STARTCHAR Mars
ENCODING 153
SWIDTH 600 0
DWIDTH 18 0
BBX 15 14 1 0
BITMAP
007c
00fe
001e
1fbe
3ff6
6064
c034
c030
c030
c030
e070
70e0
3fc0
0f80
ENDCHAR
STARTCHAR Jupiter
ENCODING 154
SWIDTH 600 0
DWIDTH 18 0
BBX 16 20 1 -3
BITMAP
0003
0003
0fc3
3ff3
3873
703b
601b
601b
601b
401b
001b
003b
0073
00f3
07c3
ffff
ffff
0003
0003
0003
ENDCHAR
STARTCHAR Saturn
ENCODING 155
SWIDTH 600 0
DWIDTH 18 0
BBX 13 17 3 0
BITMAP
7000
7000
7000
fe00
7000
71c0
77f0
7c38
7818
7018
7018
7010
7030
7020
7060
7060
7060
ENDCHAR
STARTCHAR Uranus
ENCODING 156
SWIDTH 600 0
DWIDTH 18 0
BBX 15 17 2 0
BITMAP
f39e
3398
3398
3398
3398
3ff8
3398
3398
3398
3398
739c
f39e
07c0
0440
0460
06c0
0380
ENDCHAR
STARTCHAR Neptune
ENCODING 157
SWIDTH 600 0
DWIDTH 18 0
BBX 18 20 0 -3
BITMAP
00c000
03f000
03f000
32cb00
78c780
fccfc0
b4cb40
30c300
30c300
30c200
10c600
18c600
0ffc00
03f000
00c000
00c000
0ffc00
00c000
00c000
00c000
ENDCHAR
STARTCHAR Pluto
ENCODING 158
SWIDTH 600 0
DWIDTH 18 0
BBX 14 20 2 -3
BITMAP
ffc0
fff0
e078
e018
e01c
e00c
e00c
e01c
e01c
e038
fff8
fff0
ff00
e000
e000
e000
e000
e000
fff8
fff8
ENDCHAR
STARTCHAR udieresis
ENCODING 159
SWIDTH 600 0
DWIDTH 18 0
BBX 18 17 0 0
BITMAP
03f000
0ffc00
1c0e00
380700
700380
600180
c000c0
c0c0c0
c1e0c0
c1e0c0
c0c0c0
e001c0
600180
700380
3c0f00
0ffc00
03f000
ENDCHAR
STARTCHAR dagger
ENCODING 160
SWIDTH 600 0
DWIDTH 18 0
BBX 10 13 5 1
BITMAP
c040
c080
c180
c380
c780
cf80
df80
cf80
c780
c380
c180
c080
c040
ENDCHAR
STARTCHAR LastPage
ENCODING 161
SWIDTH 600 0
DWIDTH 18 0
BBX 9 13 5 1
BITMAP
8180
8180
c180
e180
f180
f980
fd80
f980
f180
e180
c180
8180
8180
ENDCHAR
STARTCHAR SolidLeftTriangle
ENCODING 162
SWIDTH 600 0
DWIDTH 18 0
BBX 16 16 1 0
BITMAP
0001
0007
001f
007f
01ff
07ff
1fff
7fff
ffff
1fff
07ff
01ff
007f
001f
0007
0001
ENDCHAR
STARTCHAR SolidRightTriangle
ENCODING 163
SWIDTH 600 0
DWIDTH 18 0
BBX 16 16 1 0
BITMAP
8000
e000
f800
fe00
ff80
ffe0
fff8
fffe
ffff
fff8
ffe0
ff80
fe00
f800
e000
8000
ENDCHAR
STARTCHAR QuarterNote
ENCODING 164
SWIDTH 600 0
DWIDTH 18 0
BBX 8 16 5 0
BITMAP
01
01
01
01
01
01
01
01
01
01
01
01
7d
ff
ff
7c
ENDCHAR
STARTCHAR EigthNote
ENCODING 165
SWIDTH 600 0
DWIDTH 18 0
BBX 13 16 2 0
BITMAP
0100
01c0
01e0
0130
0110
0108
0100
0100
0100
0100
0100
0100
7d00
ff00
ff00
7c00
ENDCHAR
STARTCHAR BeamedEighthNote
ENCODING 166
SWIDTH 700 0
DWIDTH 21 0
BBX 19 17 1 -1
BITMAP
01ffe0
01ffe0
010020
010020
010020
010020
010020
010020
010020
010020
010020
010020
390020
7d0fa0
ff1fe0
7e0fc0
000780
ENDCHAR
STARTCHAR BeamedSixteenthNote
ENCODING 167
SWIDTH 700 0
DWIDTH 21 0
BBX 19 17 1 -1
BITMAP
01ffe0
01ffe0
010020
01ffe0
01ffe0
010020
010020
010020
010020
010020
010020
010020
390020
7d0fa0
ff1fe0
7e0fc0
000780
ENDCHAR
STARTCHAR EntityStart
ENCODING 168
SWIDTH 700 0
DWIDTH 21 0
BBX 19 23 1 -4
BITMAP
ffffe0
800100
800100
800100
800100
878100
8c4100
880100
880100
840100
840100
9e3900
932100
a16100
a0c100
a0c100
90c100
8f3900
800100
800100
800100
800100
ffffe0
ENDCHAR
STARTCHAR EntityEnd
ENCODING 169
SWIDTH 700 0
DWIDTH 21 0
BBX 19 23 1 -4
BITMAP
ffffe0
100020
100020
100020
100020
100020
100020
100020
100020
100020
101820
101820
101820
100020
100020
100020
101020
101020
101020
102020
102020
100020
ffffe0
ENDCHAR
STARTCHAR trademark
ENCODING 170
SWIDTH 600 0
DWIDTH 18 0
BBX 16 17 4 3
BITMAP
0003
0007
000e
001c
0018
0030
0070
00e0
40e0
e1c0
f1c0
7380
3b80
3f00
1f00
1e00
0c00
ENDCHAR
STARTCHAR acute
ENCODING 171
SWIDTH 600 0
DWIDTH 18 0
BBX 19 20 1 0
BITMAP
000040
0000e0
0001c0
000380
fffe00
fffc00
c00f00
c00f00
c01f00
cc1b00
de3b00
ce7300
c77300
c76300
c3e300
c3c300
c18300
c00300
ffff00
ffff00
ENDCHAR
STARTCHAR dieresis
ENCODING 172
SWIDTH 364 0
DWIDTH 11 0
BBX 8 10 2 11
BITMAP
ff
ff
18
18
18
18
18
18
18
18
ENDCHAR
STARTCHAR notequal
ENCODING 173
SWIDTH 364 0
DWIDTH 11 0
BBX 11 11 0 10
BITMAP
0c00
0c00
8c40
ede0
3f80
1e00
3f80
ede0
8c40
0c00
0c00
ENDCHAR
STARTCHAR AE
ENCODING 174
SWIDTH 364 0
DWIDTH 11 0
BBX 9 10 1 11
BITMAP
c180
c180
c180
c180
ff80
ff80
c180
c180
c180
c180
ENDCHAR
STARTCHAR Oslash
ENCODING 175
SWIDTH 600 0
DWIDTH 18 0
BBX 9 21 8 -2
BITMAP
ff80
ff80
ff80
e000
e000
e000
e000
e000
e000
e000
e000
e000
e000
e000
e000
e000
e000
e000
e000
e000
e000
ENDCHAR
STARTCHAR infinity
ENCODING 176
SWIDTH 600 0
DWIDTH 18 0
BBX 6 21 4 -4
BITMAP
1c
1c
1c
1c
1c
fc
fc
fc
e0
e0
e0
e0
fc
fc
fc
1c
1c
1c
1c
1c
1c
ENDCHAR
STARTCHAR plusminus
ENCODING 177
SWIDTH 600 0
DWIDTH 18 0
BBX 9 20 8 0
BITMAP
e000
e000
e000
e000
e000
e000
e000
e000
e000
e000
e000
e000
e000
e000
e000
e000
e000
ff80
ff80
ff80
ENDCHAR
STARTCHAR lessequal
ENCODING 178
SWIDTH 600 0
DWIDTH 18 0
BBX 3 9 8 0
BITMAP
e0
e0
e0
e0
e0
e0
e0
e0
e0
ENDCHAR
STARTCHAR greaterequal
ENCODING 179
SWIDTH 600 0
DWIDTH 18 0
BBX 10 25 4 -6
BITMAP
1fc0
1fc0
1fc0
1c00
1c00
1c00
1c00
fc00
fc00
fc00
e000
e000
e000
e000
fc00
fc00
fc00
1c00
1c00
1c00
1c00
1c00
1fc0
1fc0
1fc0
ENDCHAR
STARTCHAR yen
ENCODING 180
SWIDTH 600 0
DWIDTH 18 0
BBX 10 38 4 -12
BITMAP
0fc0
0fc0
0fc0
0e00
0e00
0e00
0e00
0e00
0e00
0e00
0e00
0e00
0e00
0e00
fe00
fe00
fe00
e000
e000
e000
e000
fe00
fe00
fe00
0e00
0e00
0e00
0e00
0e00
0e00
0e00
0e00
0e00
0e00
0e00
0fc0
0fc0
0fc0
ENDCHAR
STARTCHAR mu
ENCODING 181
SWIDTH 600 0
DWIDTH 18 0
BBX 11 51 4 -19
BITMAP
0fe0
0fe0
0fe0
0e00
0e00
0e00
0e00
0e00
0e00
0e00
0e00
0e00
0e00
0e00
0e00
0e00
0e00
0e00
0e00
0e00
fe00
fe00
fe00
e000
e000
e000
e000
fe00
fe00
fe00
0e00
0e00
0e00
0e00
0e00
0e00
0e00
0e00
0e00
0e00
0e00
0e00
0e00
0e00
0e00
0e00
0e00
0e00
0fe0
0fe0
0fe0
ENDCHAR
STARTCHAR partialdiff
ENCODING 182
SWIDTH 600 0
DWIDTH 18 0
BBX 13 63 4 -25
BITMAP
0ff8
0ff8
0ff8
0e00
0e00
0e00
0e00
0e00
0e00
0e00
0e00
0e00
0e00
0e00
0e00
0e00
0e00
0e00
0e00
0e00
0e00
0e00
0e00
0e00
0e00
0e00
fe00
fe00
fe00
e000
e000
e000
e000
fe00
fe00
fe00
0e00
0e00
0e00
0e00
0e00
0e00
0e00
0e00
0e00
0e00
0e00
0e00
0e00
0e00
0e00
0e00
0e00
0e00
0e00
0e00
0e00
0e00
0e00
0e00
0ff8
0ff8
0ff8
ENDCHAR
STARTCHAR summation
ENCODING 183
SWIDTH 720 0
DWIDTH 22 0
BBX 19 13 1 0
BITMAP
020000
070000
0f0000
1e0000
3c0000
7f9e60
ff9e60
7f9e60
3c0000
1e0000
0f0000
070000
020000
ENDCHAR
STARTCHAR product
ENCODING 184
SWIDTH 600 0
DWIDTH 18 0
BBX 13 19 3 0
BITMAP
0200
0700
0f80
1fc0
3fe0
7ff0
f778
6730
0700
0000
0000
0700
0700
0700
0700
0000
0000
0700
0700
ENDCHAR
STARTCHAR pi
ENCODING 185
SWIDTH 720 0
DWIDTH 22 0
BBX 19 13 1 0
BITMAP
000400
000e00
000e00
000700
000380
c79fc0
c79fe0
c79fc0
000380
000700
000e00
000e00
000400
ENDCHAR
STARTCHAR integral
ENCODING 186
SWIDTH 600 0
DWIDTH 18 0
BBX 13 19 3 0
BITMAP
0700
0700
0000
0000
0700
0700
0700
0700
0000
0000
0700
6730
f778
7ff0
3fe0
1fc0
0f80
0700
0200
ENDCHAR
STARTCHAR ordfeminine
ENCODING 187
SWIDTH 900 0
DWIDTH 27 0
BBX 23 11 2 2
BITMAP
fffffe
800002
800002
800002
9c3872
9c3872
9c3872
800002
800002
800002
fffffe
ENDCHAR
STARTCHAR ordmasculine
ENCODING 188
SWIDTH 900 0
DWIDTH 27 0
BBX 11 23 8 -4
BITMAP
ffe0
8020
8020
8e20
8e20
8e20
8020
8020
8020
8e20
8e20
8e20
8020
8020
8020
8020
8020
8e20
8e20
8e20
8020
8020
ffe0
ENDCHAR
STARTCHAR Omega
ENCODING 189
SWIDTH 900 0
DWIDTH 27 0
BBX 23 23 2 -4
BITMAP
fe0000
c10000
c08000
c04000
c02000
c39000
e38800
710400
380200
1c0100
0e1c80
071c40
039c20
01c010
00e008
007044
0038e2
001ce2
000e02
000702
000382
0001c2
0000fe
ENDCHAR
STARTCHAR ae
ENCODING 190
SWIDTH 364 0
DWIDTH 11 0
BBX 6 11 3 10
BITMAP
30
30
30
fc
30
30
30
30
30
30
30
ENDCHAR
STARTCHAR oslash
ENCODING 191
SWIDTH 263 0
DWIDTH 8 0
BBX 0 0 0 0
BITMAP
ENDCHAR
STARTCHAR questiondown
ENCODING 192
SWIDTH 263 0
DWIDTH 8 0
BBX 0 0 0 0
BITMAP
ENDCHAR
STARTCHAR exclamdown
ENCODING 193
SWIDTH 263 0
DWIDTH 8 0
BBX 0 0 0 0
BITMAP
ENDCHAR
STARTCHAR logicalnot
ENCODING 194
SWIDTH 263 0
DWIDTH 8 0
BBX 0 0 0 0
BITMAP
ENDCHAR
STARTCHAR radical
ENCODING 195
SWIDTH 263 0
DWIDTH 8 0
BBX 0 0 0 0
BITMAP
ENDCHAR
STARTCHAR florin
ENCODING 196
SWIDTH 263 0
DWIDTH 8 0
BBX 0 0 0 0
BITMAP
ENDCHAR
STARTCHAR approxequal
ENCODING 197
SWIDTH 263 0
DWIDTH 8 0
BBX 0 0 0 0
BITMAP
ENDCHAR
STARTCHAR Delta
ENCODING 198
SWIDTH 263 0
DWIDTH 8 0
BBX 0 0 0 0
BITMAP
ENDCHAR
STARTCHAR guillemotleft
ENCODING 199
SWIDTH 263 0
DWIDTH 8 0
BBX 0 0 0 0
BITMAP
ENDCHAR
STARTCHAR guillemotright
ENCODING 200
SWIDTH 263 0
DWIDTH 8 0
BBX 0 0 0 0
BITMAP
ENDCHAR
STARTCHAR ellipsis
ENCODING 201
SWIDTH 263 0
DWIDTH 8 0
BBX 0 0 0 0
BITMAP
ENDCHAR
STARTCHAR nbspace
ENCODING 202
SWIDTH 263 0
DWIDTH 8 0
BBX 0 0 0 0
BITMAP
ENDCHAR
STARTCHAR Agrave
ENCODING 203
SWIDTH 263 0
DWIDTH 8 0
BBX 0 0 0 0
BITMAP
ENDCHAR
STARTCHAR Atilde
ENCODING 204
SWIDTH 263 0
DWIDTH 8 0
BBX 0 0 0 0
BITMAP
ENDCHAR
STARTCHAR Otilde
ENCODING 205
SWIDTH 263 0
DWIDTH 8 0
BBX 0 0 0 0
BITMAP
ENDCHAR
STARTCHAR parenright
ENCODING 206
SWIDTH 263 0
DWIDTH 8 0
BBX 0 0 0 0
BITMAP
ENDCHAR
STARTCHAR oe
ENCODING 207
SWIDTH 263 0
DWIDTH 8 0
BBX 0 0 0 0
BITMAP
ENDCHAR
STARTCHAR endash
ENCODING 208
SWIDTH 263 0
DWIDTH 8 0
BBX 0 0 0 0
BITMAP
ENDCHAR
STARTCHAR emdash
ENCODING 209
SWIDTH 263 0
DWIDTH 8 0
BBX 0 0 0 0
BITMAP
ENDCHAR
STARTCHAR quotedblleft
ENCODING 210
SWIDTH 263 0
DWIDTH 8 0
BBX 0 0 0 0
BITMAP
ENDCHAR
STARTCHAR quotedblright
ENCODING 211
SWIDTH 263 0
DWIDTH 8 0
BBX 0 0 0 0
BITMAP
ENDCHAR
STARTCHAR quoteleft
ENCODING 212
SWIDTH 263 0
DWIDTH 8 0
BBX 0 0 0 0
BITMAP
ENDCHAR
STARTCHAR quoteright
ENCODING 213
SWIDTH 263 0
DWIDTH 8 0
BBX 0 0 0 0
BITMAP
ENDCHAR
STARTCHAR divide
ENCODING 214
SWIDTH 263 0
DWIDTH 8 0
BBX 0 0 0 0
BITMAP
ENDCHAR
STARTCHAR lozenge
ENCODING 215
SWIDTH 263 0
DWIDTH 8 0
BBX 0 0 0 0
BITMAP
ENDCHAR
STARTCHAR ydieresis
ENCODING 216
SWIDTH 263 0
DWIDTH 8 0
BBX 0 0 0 0
BITMAP
ENDCHAR
STARTCHAR Ydieresis
ENCODING 217
SWIDTH 263 0
DWIDTH 8 0
BBX 0 0 0 0
BITMAP
ENDCHAR
STARTCHAR fraction
ENCODING 218
SWIDTH 263 0
DWIDTH 8 0
BBX 0 0 0 0
BITMAP
ENDCHAR
STARTCHAR currency
ENCODING 219
SWIDTH 263 0
DWIDTH 8 0
BBX 0 0 0 0
BITMAP
ENDCHAR
STARTCHAR guilsinglleft
ENCODING 220
SWIDTH 263 0
DWIDTH 8 0
BBX 0 0 0 0
BITMAP
ENDCHAR
STARTCHAR guilsinglright
ENCODING 221
SWIDTH 263 0
DWIDTH 8 0
BBX 0 0 0 0
BITMAP
ENDCHAR
STARTCHAR fi
ENCODING 222
SWIDTH 263 0
DWIDTH 8 0
BBX 0 0 0 0
BITMAP
ENDCHAR
STARTCHAR fl
ENCODING 223
SWIDTH 263 0
DWIDTH 8 0
BBX 0 0 0 0
BITMAP
ENDCHAR
STARTCHAR daggerdbl
ENCODING 224
SWIDTH 263 0
DWIDTH 8 0
BBX 0 0 0 0
BITMAP
ENDCHAR
STARTCHAR periodcentered
ENCODING 225
SWIDTH 263 0
DWIDTH 8 0
BBX 0 0 0 0
BITMAP
ENDCHAR
STARTCHAR quotesinglbase
ENCODING 226
SWIDTH 263 0
DWIDTH 8 0
BBX 0 0 0 0
BITMAP
ENDCHAR
STARTCHAR quotedblbase
ENCODING 227
SWIDTH 263 0
DWIDTH 8 0
BBX 0 0 0 0
BITMAP
ENDCHAR
STARTCHAR perthousand
ENCODING 228
SWIDTH 263 0
DWIDTH 8 0
BBX 0 0 0 0
BITMAP
ENDCHAR
STARTCHAR Acircumflex
ENCODING 229
SWIDTH 263 0
DWIDTH 8 0
BBX 0 0 0 0
BITMAP
ENDCHAR
STARTCHAR Ecircumflex
ENCODING 230
SWIDTH 263 0
DWIDTH 8 0
BBX 0 0 0 0
BITMAP
ENDCHAR
STARTCHAR Aacute
ENCODING 231
SWIDTH 263 0
DWIDTH 8 0
BBX 0 0 0 0
BITMAP
ENDCHAR
STARTCHAR Edieresis
ENCODING 232
SWIDTH 263 0
DWIDTH 8 0
BBX 0 0 0 0
BITMAP
ENDCHAR
STARTCHAR Egrave
ENCODING 233
SWIDTH 263 0
DWIDTH 8 0
BBX 0 0 0 0
BITMAP
ENDCHAR
STARTCHAR Iacute
ENCODING 234
SWIDTH 263 0
DWIDTH 8 0
BBX 0 0 0 0
BITMAP
ENDCHAR
STARTCHAR Icircumflex
ENCODING 235
SWIDTH 263 0
DWIDTH 8 0
BBX 0 0 0 0
BITMAP
ENDCHAR
STARTCHAR Idieresis
ENCODING 236
SWIDTH 263 0
DWIDTH 8 0
BBX 0 0 0 0
BITMAP
ENDCHAR
STARTCHAR Igrave
ENCODING 237
SWIDTH 263 0
DWIDTH 8 0
BBX 0 0 0 0
BITMAP
ENDCHAR
STARTCHAR Oacute
ENCODING 238
SWIDTH 263 0
DWIDTH 8 0
BBX 0 0 0 0
BITMAP
ENDCHAR
STARTCHAR Ocircumflex
ENCODING 239
SWIDTH 263 0
DWIDTH 8 0
BBX 0 0 0 0
BITMAP
ENDCHAR
STARTCHAR apple
ENCODING 240
SWIDTH 263 0
DWIDTH 8 0
BBX 0 0 0 0
BITMAP
ENDCHAR
STARTCHAR Ograve
ENCODING 241
SWIDTH 263 0
DWIDTH 8 0
BBX 0 0 0 0
BITMAP
ENDCHAR
STARTCHAR Uacute
ENCODING 242
SWIDTH 263 0
DWIDTH 8 0
BBX 0 0 0 0
BITMAP
ENDCHAR
STARTCHAR Ucircumflex
ENCODING 243
SWIDTH 263 0
DWIDTH 8 0
BBX 0 0 0 0
BITMAP
ENDCHAR
STARTCHAR Ugrave
ENCODING 244
SWIDTH 263 0
DWIDTH 8 0
BBX 0 0 0 0
BITMAP
ENDCHAR
STARTCHAR dotlessi
ENCODING 245
SWIDTH 263 0
DWIDTH 8 0
BBX 0 0 0 0
BITMAP
ENDCHAR
STARTCHAR circumflex
ENCODING 246
SWIDTH 263 0
DWIDTH 8 0
BBX 0 0 0 0
BITMAP
ENDCHAR
STARTCHAR CurlyQuote
ENCODING 247
SWIDTH 600 0
DWIDTH 18 0
BBX 4 8 7 9
BITMAP
f0
f0
f0
70
60
60
e0
c0
ENDCHAR
STARTCHAR CurlyDblQuote
ENCODING 248
SWIDTH 600 0
DWIDTH 18 0
BBX 11 8 3 9
BITMAP
f1e0
f1e0
f1e0
70e0
60c0
60c0
c1c0
c180
ENDCHAR
STARTCHAR CurlyBackQuote
ENCODING 249
SWIDTH 600 0
DWIDTH 18 0
BBX 4 8 7 9
BITMAP
30
30
60
60
e0
f0
f0
f0
ENDCHAR
STARTCHAR CurlyDblBackQuote
ENCODING 250
SWIDTH 600 0
DWIDTH 18 0
BBX 11 8 4 9
BITMAP
3060
7060
60c0
60c0
e1c0
f1e0
f1e0
f1e0
ENDCHAR
STARTCHAR StrikeCircle
ENCODING 251
SWIDTH 600 0
DWIDTH 18 0
BBX 18 17 0 0
BITMAP
03f000
0c0c00
100200
200100
400080
400080
800040
800040
800040
800040
800040
400080
400080
200100
100200
0c0c00
03f000
ENDCHAR
STARTCHAR StrikeSquare
ENCODING 252
SWIDTH 600 0
DWIDTH 18 0
BBX 16 16 1 0
BITMAP
ffff
8001
8001
8001
8001
8001
8001
8001
8001
8001
8001
8001
8001
8001
8001
ffff
ENDCHAR
STARTCHAR StrikeTriangle
ENCODING 253
SWIDTH 600 0
DWIDTH 18 0
BBX 17 16 1 0
BITMAP
008000
008000
014000
014000
022000
022000
041000
041000
080800
180c00
100400
300600
200200
600300
400100
ffff80
ENDCHAR
STARTCHAR MathLogo1
ENCODING 254
SWIDTH 2776 0
DWIDTH 83 0
BBX 84 20 1 0
BITMAP
07c00fc000000000000000
01c00e0000000000000000
01c0160000801000000000
01c01600c0fff7f1fdfff0
01e02e00c18e11c0607070
01e02e01c10e08c0607030
02e04e01c20c0980607010
02604e02c00c0180606000
02608c02e00c0180c06080
02708c04e01c0180c06100
04710c04601c0180c06100
04710c08601c01ffc07f00
04320c08601c0180c0e100
08320c0ff01c0380c0c100
08341c1070180300c0c100
083c1c103018030080c000
103818203018030080c010
103818203838030180c020
30101c403838070181c040
fc10fff0fefe1fcfe7ffc0
ENDCHAR
STARTCHAR MathLogo2
ENCODING 255
SWIDTH 2981 0
DWIDTH 89 0
BBX 89 18 0 0
BITMAP
000000000200200038000e00
0f803e0307ffefe0c6819500
038038030618678301019680
018078070418230601039700
038070070810130601039300
03c0b00b0030030c00858e00
02c0b00b8030071800058000
04c13011803007180009c000
04c13011803006180008c000
04c23021803006300010c000
08e23021803006300010c000
0864303fc0300630001fc000
08683040c06006300020e000
10686040c060043000206000
10706080c060043004406000
10606080e0600c180c406000
30607100e0e00c0c1c807000
f823ffc3fbf83f87f3e1f800
ENDCHAR
ENDFONT
